solid OpenSCAD_Model
  facet normal 0 -0.2588190450800846 -0.9659258262950801
    outer loop
      vertex -26.6 -17.193479708032488 12.213958007458901
      vertex -26.6 17.193479709895133 3.00000000211948
      vertex -23.6 -17.193479708032488 12.213958007458901
    endloop
  endfacet
  facet normal 1 0 0
    outer loop
      vertex -23.6 -17.193479708032488 12.213958007458901
      vertex -23.6 17.193479709895133 3.00000000211948
      vertex -23.6 -14.346470214426517 22.839142091572285
    endloop
  endfacet
  facet normal -1 0 0
    outer loop
      vertex -26.6 -17.437432854816777 23.667363040001604
      vertex -26.6 -16.14333762973547 28.4969921708107
      vertex -26.6 -14.346470214426517 22.839142091572285
    endloop
  endfacet
  facet normal 0 -0.9659258263021091 0.25881904505385195
    outer loop
      vertex -26.6 -17.437432854816777 23.667363040001604
      vertex -23.6 -17.437432854816777 23.667363040001604
      vertex -23.6 -16.14333762973547 28.4969921708107
    endloop
  endfacet
  facet normal 1 0 0
    outer loop
      vertex -23.6 -17.437432854816777 23.667363040001604
      vertex -23.6 -14.346470214426517 22.839142091572285
      vertex -23.6 -16.14333762973547 28.4969921708107
    endloop
  endfacet
  facet normal 0 -0.9659258263021091 0.25881904505385195
    outer loop
      vertex -26.6 -17.437432854816777 23.667363040001604
      vertex -23.6 -16.14333762973547 28.4969921708107
      vertex -26.6 -16.14333762973547 28.4969921708107
    endloop
  endfacet
  facet normal -1 0 0
    outer loop
      vertex -26.6 -17.193479708032488 12.213958007458901
      vertex -26.6 -14.346470214426517 22.839142091572285
      vertex -26.6 21.334584430428027 18.454813221726358
    endloop
  endfacet
  facet normal -1 0 0
    outer loop
      vertex -26.6 -16.14333762973547 28.4969921708107
      vertex -26.6 21.334584430428027 18.454813221726358
      vertex -26.6 -14.346470214426517 22.839142091572285
    endloop
  endfacet
  facet normal 0 0.2588190450800846 0.9659258262950801
    outer loop
      vertex -26.6 -16.14333762973547 28.4969921708107
      vertex -23.6 -16.14333762973547 28.4969921708107
      vertex -23.6 21.334584430428027 18.454813221726358
    endloop
  endfacet
  facet normal 1 0 0
    outer loop
      vertex -23.6 -16.14333762973547 28.4969921708107
      vertex -23.6 -14.346470214426517 22.839142091572285
      vertex -23.6 21.334584430428027 18.454813221726358
    endloop
  endfacet
  facet normal 0 -0.2588190450800846 -0.9659258262950801
    outer loop
      vertex -23.6 -17.193479708032488 12.213958007458901
      vertex -26.6 17.193479709895133 3.00000000211948
      vertex -23.6 17.193479709895133 3.00000000211948
    endloop
  endfacet
  facet normal -1 0 0
    outer loop
      vertex -26.6 -17.193479708032488 12.213958007458901
      vertex -26.6 21.334584430428027 18.454813221726358
      vertex -26.6 17.193479709895133 3.00000000211948
    endloop
  endfacet
  facet normal 1 0 0
    outer loop
      vertex -23.6 -14.346470214426517 22.839142091572285
      vertex -23.6 17.193479709895133 3.00000000211948
      vertex -23.6 21.334584430428027 18.454813221726358
    endloop
  endfacet
  facet normal 0 0.2588190450800846 0.9659258262950801
    outer loop
      vertex -26.6 -16.14333762973547 28.4969921708107
      vertex -23.6 21.334584430428027 18.454813221726358
      vertex -26.6 21.334584430428027 18.454813221726358
    endloop
  endfacet
  facet normal 0 -0.2588190450800846 -0.9659258262950801
    outer loop
      vertex 23.6 -17.193479708032488 12.213958007458901
      vertex 23.6 17.193479709895133 3.00000000211948
      vertex 26.6 -17.193479708032488 12.213958007458901
    endloop
  endfacet
  facet normal 1 0 0
    outer loop
      vertex 26.6 -17.193479708032488 12.213958007458901
      vertex 26.6 17.193479709895133 3.00000000211948
      vertex 26.6 -14.346470214426517 22.839142091572285
    endloop
  endfacet
  facet normal -1 0 0
    outer loop
      vertex 23.6 -17.437432854816777 23.667363040001604
      vertex 23.6 -16.14333762973547 28.4969921708107
      vertex 23.6 -14.346470214426517 22.839142091572285
    endloop
  endfacet
  facet normal 0 -0.9659258263021091 0.25881904505385195
    outer loop
      vertex 23.6 -17.437432854816777 23.667363040001604
      vertex 26.6 -17.437432854816777 23.667363040001604
      vertex 26.6 -16.14333762973547 28.4969921708107
    endloop
  endfacet
  facet normal 0 -0.9659258263021091 0.25881904505385195
    outer loop
      vertex 23.6 -17.437432854816777 23.667363040001604
      vertex 26.6 -16.14333762973547 28.4969921708107
      vertex 23.6 -16.14333762973547 28.4969921708107
    endloop
  endfacet
  facet normal -1 0 0
    outer loop
      vertex 23.6 -17.193479708032488 12.213958007458901
      vertex 23.6 -14.346470214426517 22.839142091572285
      vertex 23.6 21.33458443042803 18.454813221726358
    endloop
  endfacet
  facet normal -1 0 0
    outer loop
      vertex 23.6 -16.14333762973547 28.4969921708107
      vertex 23.6 21.33458443042803 18.454813221726358
      vertex 23.6 -14.346470214426517 22.839142091572285
    endloop
  endfacet
  facet normal 1 0 0
    outer loop
      vertex 26.6 -17.437432854816777 23.667363040001604
      vertex 26.6 21.334584430428027 18.454813221726358
      vertex 26.6 -16.14333762973547 28.4969921708107
    endloop
  endfacet
  facet normal 1 0 0
    outer loop
      vertex 26.6 -17.437432854816777 23.667363040001604
      vertex 26.6 -14.346470214426517 22.839142091572285
      vertex 26.6 21.334584430428027 18.454813221726358
    endloop
  endfacet
  facet normal 0 0.2588190450800846 0.9659258262950801
    outer loop
      vertex 23.6 -16.14333762973547 28.4969921708107
      vertex 26.6 -16.14333762973547 28.4969921708107
      vertex 26.6 21.334584430428027 18.454813221726358
    endloop
  endfacet
  facet normal 0 -0.2588190450800846 -0.9659258262950801
    outer loop
      vertex 26.6 -17.193479708032488 12.213958007458901
      vertex 23.6 17.193479709895133 3.00000000211948
      vertex 26.6 17.193479709895133 3.00000000211948
    endloop
  endfacet
  facet normal -1 0 0
    outer loop
      vertex 23.6 -17.193479708032488 12.213958007458901
      vertex 23.6 21.33458443042803 18.454813221726358
      vertex 23.6 17.193479709895133 3.00000000211948
    endloop
  endfacet
  facet normal 1 0 0
    outer loop
      vertex 26.6 -14.346470214426517 22.839142091572285
      vertex 26.6 17.193479709895133 3.00000000211948
      vertex 26.6 21.334584430428027 18.454813221726358
    endloop
  endfacet
  facet normal 4.883455228602909e-16 0.2588190450800845 0.9659258262950801
    outer loop
      vertex 23.6 -16.14333762973547 28.4969921708107
      vertex 26.6 21.334584430428027 18.454813221726358
      vertex 23.6 21.33458443042803 18.454813221726358
    endloop
  endfacet
  facet normal -1 0 0
    outer loop
      vertex -28 -30 0
      vertex -28 -30 3
      vertex -28 4.8296291382484675 3
    endloop
  endfacet
  facet normal -1 0 0
    outer loop
      vertex -28 -30 0
      vertex -28 4.8296291382484675 3
      vertex -28 16.0257815631022 0
    endloop
  endfacet
  facet normal 0 -1 0
    outer loop
      vertex -28 -30 0
      vertex 28 -30 3
      vertex -28 -30 3
    endloop
  endfacet
  facet normal 0 0 -1
    outer loop
      vertex -28 -30 0
      vertex -28 16.0257815631022 0
      vertex 28 -30 0
    endloop
  endfacet
  facet normal 0 0 1
    outer loop
      vertex -28 -30 3
      vertex 28 4.8296291382484675 3
      vertex -28 4.8296291382484675 3
    endloop
  endfacet
  facet normal -1 0 0
    outer loop
      vertex -28 4.8296291382484675 3
      vertex -28 17.19347970932722 3
      vertex -28 16.0257815631022 0
    endloop
  endfacet
  facet normal -1 0 0
    outer loop
      vertex -28 16.0257815631022 0
      vertex -28 17.19347970932722 3
      vertex -28 20.506363482752626 3
    endloop
  endfacet
  facet normal -1 0 0
    outer loop
      vertex -28 16.0257815631022 0
      vertex -28 30 3
      vertex -28 16.38963212708202 0
    endloop
  endfacet
  facet normal -1 0 0
    outer loop
      vertex -28 16.0257815631022 0
      vertex -28 20.506363482752626 3
      vertex -28 30 3
    endloop
  endfacet
  facet normal -1 0 0
    outer loop
      vertex -28 16.38963212708202 0
      vertex -28 30 3
      vertex -28 30 0
    endloop
  endfacet
  facet normal 0 0 1
    outer loop
      vertex -28 20.506363482752626 3
      vertex -7 30 3
      vertex -28 30 3
    endloop
  endfacet
  facet normal 0 0 -1
    outer loop
      vertex -28 16.38963212708202 0
      vertex -28 30 0
      vertex 28 16.38963212708202 0
    endloop
  endfacet
  facet normal 0 0 1
    outer loop
      vertex -28 20.506363482752626 3
      vertex -7 20.506363482752626 3
      vertex -7 30 3
    endloop
  endfacet
  facet normal 0 1 0
    outer loop
      vertex -28 30 0
      vertex -28 30 3
      vertex 28 30 0
    endloop
  endfacet
  facet normal 0 1 0
    outer loop
      vertex -28 30 3
      vertex -7 30 3
      vertex 28 30 0
    endloop
  endfacet
  facet normal 0 -1 0
    outer loop
      vertex -28 -30 0
      vertex 28 -30 0
      vertex 28 -30 3
    endloop
  endfacet
  facet normal 0 0 1
    outer loop
      vertex -28 -30 3
      vertex 28 -30 3
      vertex 28 4.8296291382484675 3
    endloop
  endfacet
  facet normal 1 0 0
    outer loop
      vertex 28 -30 0
      vertex 28 16.0257815631022 0
      vertex 28 -30 3
    endloop
  endfacet
  facet normal 1 0 0
    outer loop
      vertex 28 -30 3
      vertex 28 16.0257815631022 0
      vertex 28 4.8296291382484675 3
    endloop
  endfacet
  facet normal 0 0 -1
    outer loop
      vertex -28 16.0257815631022 0
      vertex 28 16.0257815631022 0
      vertex 28 -30 0
    endloop
  endfacet
  facet normal 0 0 -1
    outer loop
      vertex -28 30 0
      vertex 28 30 0
      vertex 28 16.38963212708202 0
    endloop
  endfacet
  facet normal 0 1 0
    outer loop
      vertex 28 30 0
      vertex -7 30 3
      vertex 7 30 3
    endloop
  endfacet
  facet normal 1 0 0
    outer loop
      vertex 28 4.8296291382484675 3
      vertex 28 16.0257815631022 0
      vertex 28 16.38963212708202 0
    endloop
  endfacet
  facet normal 0 0 1
    outer loop
      vertex 28 30 3
      vertex 7 30 3
      vertex 7 20.506363482752626 3
    endloop
  endfacet
  facet normal 1 0 0
    outer loop
      vertex 28 4.8296291382484675 3
      vertex 28 16.38963212708202 0
      vertex 28 30 0
    endloop
  endfacet
  facet normal 1 0 0
    outer loop
      vertex 28 4.8296291382484675 3
      vertex 28 30 0
      vertex 28 17.19347970932722 3
    endloop
  endfacet
  facet normal 0 0 1
    outer loop
      vertex 28 20.506363482752626 3
      vertex 28 30 3
      vertex 7 20.506363482752626 3
    endloop
  endfacet
  facet normal 0 1 0
    outer loop
      vertex 28 30 0
      vertex 7 30 3
      vertex 28 30 3
    endloop
  endfacet
  facet normal 1 0 0
    outer loop
      vertex 28 17.19347970932722 3
      vertex 28 30 0
      vertex 28 20.506363482752626 3
    endloop
  endfacet
  facet normal 1 0 0
    outer loop
      vertex 28 20.506363482752626 3
      vertex 28 30 0
      vertex 28 30 3
    endloop
  endfacet
  facet normal -1 0 0
    outer loop
      vertex -28 -18.021700650453568 9.122995361685753
      vertex -28 -17.19347970932722 12.213958002626896
      vertex -28 17.19347970932722 3
    endloop
  endfacet
  facet normal 0 -0.9659258264725529 0.25881904441774684
    outer loop
      vertex -28 -18.021700650453568 9.122995361685753
      vertex 28 -17.19347970932722 12.213958002626896
      vertex -28 -17.19347970932722 12.213958002626896
    endloop
  endfacet
  facet normal 0 -0.2588190450562115 -0.9659258263014768
    outer loop
      vertex -28 -18.021700650453568 9.122995361685753
      vertex -28 4.8296291382484675 3
      vertex 28 4.8296291382484675 3
    endloop
  endfacet
  facet normal 0 0.25881904500389 0.9659258263154964
    outer loop
      vertex -28 -17.19347970932722 12.213958002626896
      vertex 7 8 5.463385462739996
      vertex -7 8 5.463385462739996
    endloop
  endfacet
  facet normal -1 0 0
    outer loop
      vertex -28 -18.021700650453568 9.122995361685753
      vertex -28 17.19347970932722 3
      vertex -28 4.8296291382484675 3
    endloop
  endfacet
  facet normal 0 0.25881904500389 0.9659258263154963
    outer loop
      vertex -28 -17.19347970932722 12.213958002626896
      vertex -7 17.19347970932722 3
      vertex -28 17.19347970932722 3
    endloop
  endfacet
  facet normal -1 0 0
    outer loop
      vertex -28 16.0257815631022 0
      vertex -28 16.38963212708202 0
      vertex -28 16.365258760750294 -0.09096264094114304
    endloop
  endfacet
  facet normal 0 0.25881904500389 0.9659258263154963
    outer loop
      vertex -28 -17.19347970932722 12.213958002626896
      vertex -7 8 5.463385462739996
      vertex -7 17.19347970932722 3
    endloop
  endfacet
  facet normal 0 -0.2588190450562107 -0.9659258263014772
    outer loop
      vertex -28 16.0257815631022 0
      vertex -28 16.365258760750294 -0.09096264094114304
      vertex 28 16.365258760750294 -0.09096264094114304
    endloop
  endfacet
  facet normal 0 0.9659258258904734 -0.258819046590097
    outer loop
      vertex -28 16.365258760750294 -0.09096264094114304
      vertex -28 16.38963212708202 0
      vertex 28 16.38963212708202 0
    endloop
  endfacet
  facet normal 0 -0.9659258264725529 0.25881904441774684
    outer loop
      vertex -28 -18.021700650453568 9.122995361685753
      vertex 28 -18.021700650453568 9.122995361685753
      vertex 28 -17.19347970932722 12.213958002626896
    endloop
  endfacet
  facet normal 0 -0.2588190450562115 -0.9659258263014768
    outer loop
      vertex -28 -18.021700650453568 9.122995361685753
      vertex 28 4.8296291382484675 3
      vertex 28 -18.021700650453568 9.122995361685753
    endloop
  endfacet
  facet normal 0 0.25881904500389 0.9659258263154963
    outer loop
      vertex -28 -17.19347970932722 12.213958002626896
      vertex 28 -17.19347970932722 12.213958002626896
      vertex 28 17.19347970932722 3
    endloop
  endfacet
  facet normal 1 0 0
    outer loop
      vertex 28 -18.021700650453568 9.122995361685753
      vertex 28 17.19347970932722 3
      vertex 28 -17.19347970932722 12.213958002626896
    endloop
  endfacet
  facet normal 0 0.25881904500388986 0.9659258263154964
    outer loop
      vertex -28 -17.19347970932722 12.213958002626896
      vertex 28 17.19347970932722 3
      vertex 7 8 5.463385462739996
    endloop
  endfacet
  facet normal 0 -0.2588190450562107 -0.9659258263014772
    outer loop
      vertex -28 16.0257815631022 0
      vertex 28 16.365258760750294 -0.09096264094114304
      vertex 28 16.0257815631022 0
    endloop
  endfacet
  facet normal 0 0.9659258258904734 -0.258819046590097
    outer loop
      vertex -28 16.365258760750294 -0.09096264094114304
      vertex 28 16.38963212708202 0
      vertex 28 16.365258760750294 -0.09096264094114304
    endloop
  endfacet
  facet normal 0 0.25881904500389 0.9659258263154963
    outer loop
      vertex 28 17.19347970932722 3
      vertex 7 17.19347970932722 3
      vertex 7 8 5.463385462739996
    endloop
  endfacet
  facet normal 1 0 0
    outer loop
      vertex 28 -18.021700650453568 9.122995361685753
      vertex 28 4.8296291382484675 3
      vertex 28 17.19347970932722 3
    endloop
  endfacet
  facet normal 0 0 0
    outer loop
      vertex 28 4.8296291382484675 3
      vertex 28 16.0257815631022 0
      vertex 28 16.365258760750294 -0.09096264094114304
    endloop
  endfacet
  facet normal 0 0 0
    outer loop
      vertex 28 4.8296291382484675 3
      vertex 28 16.365258760750294 -0.09096264094114304
      vertex 28 16.0257815631022 0
    endloop
  endfacet
  facet normal 1 0 0
    outer loop
      vertex 28 16.0257815631022 0
      vertex 28 16.365258760750294 -0.09096264094114304
      vertex 28 16.38963212708202 0
    endloop
  endfacet
  facet normal 0 -0.9659259463814557 0.2588185969112135
    outer loop
      vertex -28 17.19347970932722 3
      vertex -23.6 17.193479709895133 3.00000000211948
      vertex -26.6 17.193479709895133 3.00000000211948
    endloop
  endfacet
  facet normal -7.271599428420189e-16 -0.965925826302109 0.258819045053852
    outer loop
      vertex -28 17.19347970932722 3
      vertex -26.6 17.193479709895133 3.00000000211948
      vertex -26.6 21.334584430428027 18.454813221726358
    endloop
  endfacet
  facet normal 0 -0.9659259463814558 0.25881859691121356
    outer loop
      vertex -28 17.19347970932722 3
      vertex -7 17.19347970932722 3
      vertex -23.6 17.193479709895133 3.00000000211948
    endloop
  endfacet
  facet normal -1 0 0
    outer loop
      vertex -28 17.19347970932722 3
      vertex -28 28.566651798784733 33.081405498087406
      vertex -28 20.506363482752626 3
    endloop
  endfacet
  facet normal 1.6051417224770466e-16 -0.965925826302109 0.258819045053852
    outer loop
      vertex -23.6 17.193479709895133 3.00000000211948
      vertex -7 20.944768402606897 17
      vertex -23.6 21.334584430428027 18.454813221726358
    endloop
  endfacet
  facet normal 0 0.9659258262439014 -0.25881904527108596
    outer loop
      vertex -28 20.506363482752626 3
      vertex -28 28.566651798784733 33.081405498087406
      vertex -7 20.506363482752626 3
    endloop
  endfacet
  facet normal 6.132674218351095e-17 -0.9659258263021091 0.2588190450538521
    outer loop
      vertex -23.6 17.193479709895133 3.00000000211948
      vertex -7 17.19347970932722 3
      vertex -7 20.944768402606897 17
    endloop
  endfacet
  facet normal -9.51619735468536e-16 -0.965925826302109 0.25881904505385206
    outer loop
      vertex -28 17.19347970932722 3
      vertex -26.6 21.334584430428027 18.454813221726358
      vertex -28 25.47568915039301 33.90962643921375
    endloop
  endfacet
  facet normal -1 0 0
    outer loop
      vertex -28 17.19347970932722 3
      vertex -28 25.47568915039301 33.90962643921375
      vertex -28 28.566651798784733 33.081405498087406
    endloop
  endfacet
  facet normal 0 -0.9659258263021089 0.2588190450538521
    outer loop
      vertex -26.6 21.334584430428027 18.454813221726358
      vertex -23.6 21.334584430428027 18.454813221726358
      vertex -28 25.47568915039301 33.90962643921375
    endloop
  endfacet
  facet normal 9.33784461388676e-17 0.9659258262439013 -0.25881904527108585
    outer loop
      vertex -28 28.566651798784733 33.081405498087406
      vertex -7 24.257652179406914 17
      vertex -7 20.506363482752626 3
    endloop
  endfacet
  facet normal 1.4228799051180034e-16 -0.9659258263021092 0.25881904505385167
    outer loop
      vertex -23.6 21.334584430428027 18.454813221726358
      vertex -7 20.944768402606897 17
      vertex 28 25.47568915039301 33.90962643921375
    endloop
  endfacet
  facet normal 0 -0.9659258263021091 0.2588190450538521
    outer loop
      vertex -23.6 21.334584430428027 18.454813221726358
      vertex 28 25.47568915039301 33.90962643921375
      vertex -28 25.47568915039301 33.90962643921375
    endloop
  endfacet
  facet normal 0 0.2588190438356702 0.9659258266285198
    outer loop
      vertex -28 25.47568915039301 33.90962643921375
      vertex 28 28.566651798784733 33.081405498087406
      vertex -28 28.566651798784733 33.081405498087406
    endloop
  endfacet
  facet normal 0 0.9659258262439013 -0.258819045271086
    outer loop
      vertex -28 28.566651798784733 33.081405498087406
      vertex 28 28.566651798784733 33.081405498087406
      vertex -7 24.257652179406914 17
    endloop
  endfacet
  facet normal 2.2149254921322155e-17 -0.9659258263021091 0.2588190450538521
    outer loop
      vertex 23.6 21.33458443042803 18.454813221726358
      vertex 7 20.944768402606897 17
      vertex 7 17.19347970932722 3
    endloop
  endfacet
  facet normal 0 -0.9659259463814558 0.25881859691121356
    outer loop
      vertex 23.6 17.193479709895133 3.00000000211948
      vertex 7 17.19347970932722 3
      vertex 28 17.19347970932722 3
    endloop
  endfacet
  facet normal 0 0.9659258262439013 -0.25881904527108607
    outer loop
      vertex 28 20.506363482752626 3
      vertex 7 20.506363482752626 3
      vertex 7 24.257652179406918 17
    endloop
  endfacet
  facet normal -6.132674219231419e-17 -0.965925826302109 0.2588190450538522
    outer loop
      vertex 23.6 17.193479709895133 3.00000000211948
      vertex 23.6 21.33458443042803 18.454813221726358
      vertex 7 17.19347970932722 3
    endloop
  endfacet
  facet normal 0 -0.9659259463814557 0.25881859691121356
    outer loop
      vertex 23.6 17.193479709895133 3.00000000211948
      vertex 28 17.19347970932722 3
      vertex 26.6 17.193479709895133 3.00000000211948
    endloop
  endfacet
  facet normal 7.271599427681635e-16 -0.965925826302109 0.258819045053852
    outer loop
      vertex 26.6 17.193479709895133 3.00000000211948
      vertex 28 17.19347970932722 3
      vertex 26.6 21.334584430428027 18.454813221726358
    endloop
  endfacet
  facet normal 1 0 0
    outer loop
      vertex 28 17.19347970932722 3
      vertex 28 20.506363482752626 3
      vertex 28 28.566651798784733 33.081405498087406
    endloop
  endfacet
  facet normal 0 -0.965925826302109 0.2588190450538519
    outer loop
      vertex 28 25.47568915039301 33.90962643921375
      vertex -7 20.944768402606897 17
      vertex 7 20.944768402606897 17
    endloop
  endfacet
  facet normal -2.438776099700289e-16 0.9659258262439014 -0.25881904527108557
    outer loop
      vertex 28 28.566651798784733 33.081405498087406
      vertex 7 24.257652179406918 17
      vertex -7 24.257652179406914 17
    endloop
  endfacet
  facet normal 0 0.2588190438356702 0.9659258266285198
    outer loop
      vertex -28 25.47568915039301 33.90962643921375
      vertex 28 25.47568915039301 33.90962643921375
      vertex 28 28.566651798784733 33.081405498087406
    endloop
  endfacet
  facet normal 4.4585029682878966e-17 -0.9659258263021091 0.2588190450538519
    outer loop
      vertex 23.6 21.33458443042803 18.454813221726358
      vertex 28 25.47568915039301 33.90962643921375
      vertex 7 20.944768402606897 17
    endloop
  endfacet
  facet normal 9.51619735468536e-16 -0.965925826302109 0.25881904505385206
    outer loop
      vertex 28 17.19347970932722 3
      vertex 28 25.47568915039301 33.90962643921375
      vertex 26.6 21.334584430428027 18.454813221726358
    endloop
  endfacet
  facet normal 1.0864670585515572e-16 0.9659258262439014 -0.25881904527108596
    outer loop
      vertex 28 20.506363482752626 3
      vertex 7 24.257652179406918 17
      vertex 28 28.566651798784733 33.081405498087406
    endloop
  endfacet
  facet normal -1.1438859652700597e-15 -0.9659258263021089 0.2588190450538522
    outer loop
      vertex 23.6 21.33458443042803 18.454813221726358
      vertex 26.6 21.334584430428027 18.454813221726358
      vertex 28 25.47568915039301 33.90962643921375
    endloop
  endfacet
  facet normal 1 0 0
    outer loop
      vertex 28 17.19347970932722 3
      vertex 28 28.566651798784733 33.081405498087406
      vertex 28 25.47568915039301 33.90962643921375
    endloop
  endfacet
  facet normal -1 0 0
    outer loop
      vertex -28 -17.19347970932722 12.213958002626896
      vertex -28 -20.284442350268364 13.042178951203823
      vertex -28 -14.346470214426517 22.839142091572285
    endloop
  endfacet
  facet normal -9.435568188456002e-16 0.965925826315528 -0.25881904500377173
    outer loop
      vertex -28 -17.19347970932722 12.213958002626896
      vertex -28 -14.346470214426517 22.839142091572285
      vertex -26.6 -17.193479708032488 12.213958007458901
    endloop
  endfacet
  facet normal 0 0.9659257579701881 -0.25881930007191845
    outer loop
      vertex -28 -17.19347970932722 12.213958002626896
      vertex -26.6 -17.193479708032488 12.213958007458901
      vertex 28 -17.19347970932722 12.213958002626896
    endloop
  endfacet
  facet normal 0 0.9659257579701881 -0.2588193000719185
    outer loop
      vertex -26.6 -17.193479708032488 12.213958007458901
      vertex -23.6 -17.193479708032488 12.213958007458901
      vertex 28 -17.19347970932722 12.213958002626896
    endloop
  endfacet
  facet normal 0 -0.25881904659008637 -0.9659258258904763
    outer loop
      vertex -28 -17.19347970932722 12.213958002626896
      vertex 28 -20.284442350268364 13.042178951203823
      vertex -28 -20.284442350268364 13.042178951203823
    endloop
  endfacet
  facet normal 0 0.9659258263155281 -0.2588190450037717
    outer loop
      vertex -23.6 -17.193479708032488 12.213958007458901
      vertex -23.6 -14.346470214426517 22.839142091572285
      vertex 23.6 -17.193479708032488 12.213958007458901
    endloop
  endfacet
  facet normal -1 0 0
    outer loop
      vertex -28 -20.284442350268364 13.042178951203823
      vertex -28 -17.43743285536766 23.667363040149212
      vertex -28 -14.346470214426517 22.839142091572285
    endloop
  endfacet
  facet normal 0 0.965925826315528 -0.2588190450037716
    outer loop
      vertex -26.6 -17.193479708032488 12.213958007458901
      vertex -28 -14.346470214426517 22.839142091572285
      vertex -26.6 -14.346470214426517 22.839142091572285
    endloop
  endfacet
  facet normal 0 0.25881904659008637 0.9659258258904763
    outer loop
      vertex -28 -17.43743285536766 23.667363040149212
      vertex -26.6 -14.346470214426517 22.839142091572285
      vertex -28 -14.346470214426517 22.839142091572285
    endloop
  endfacet
  facet normal -4.952233196657484e-16 0.25881904659008653 0.9659258258904762
    outer loop
      vertex -28 -17.43743285536766 23.667363040149212
      vertex -26.6 -17.437432854816777 23.667363040001604
      vertex -26.6 -14.346470214426517 22.839142091572285
    endloop
  endfacet
  facet normal 0 0.25881787234999826 0.9659261405263966
    outer loop
      vertex -28 -17.43743285536766 23.667363040149212
      vertex -23.6 -17.437432854816777 23.667363040001604
      vertex -26.6 -17.437432854816777 23.667363040001604
    endloop
  endfacet
  facet normal 0 -0.9659258263155279 0.25881904500377173
    outer loop
      vertex -28 -20.284442350268364 13.042178951203823
      vertex 28 -17.43743285536766 23.667363040149212
      vertex -28 -17.43743285536766 23.667363040149212
    endloop
  endfacet
  facet normal 0 0.2588190465900866 0.9659258258904764
    outer loop
      vertex -23.6 -17.437432854816777 23.667363040001604
      vertex 23.6 -14.346470214426517 22.839142091572285
      vertex -23.6 -14.346470214426517 22.839142091572285
    endloop
  endfacet
  facet normal 0 0.25881787234999826 0.9659261405263966
    outer loop
      vertex -28 -17.43743285536766 23.667363040149212
      vertex 23.6 -17.437432854816777 23.667363040001604
      vertex -23.6 -17.437432854816777 23.667363040001604
    endloop
  endfacet
  facet normal 0 -0.25881904659008637 -0.9659258258904763
    outer loop
      vertex -28 -17.19347970932722 12.213958002626896
      vertex 28 -17.19347970932722 12.213958002626896
      vertex 28 -20.284442350268364 13.042178951203823
    endloop
  endfacet
  facet normal 0 0.965925757970188 -0.25881930007191845
    outer loop
      vertex -23.6 -17.193479708032488 12.213958007458901
      vertex 23.6 -17.193479708032488 12.213958007458901
      vertex 28 -17.19347970932722 12.213958002626896
    endloop
  endfacet
  facet normal 0 -0.9659258263155279 0.25881904500377173
    outer loop
      vertex -28 -20.284442350268364 13.042178951203823
      vertex 28 -20.284442350268364 13.042178951203823
      vertex 28 -17.43743285536766 23.667363040149212
    endloop
  endfacet
  facet normal 0 0.9659257579701881 -0.2588193000719185
    outer loop
      vertex 23.6 -17.193479708032488 12.213958007458901
      vertex 26.6 -17.193479708032488 12.213958007458901
      vertex 28 -17.19347970932722 12.213958002626896
    endloop
  endfacet
  facet normal 1 0 0
    outer loop
      vertex 28 -17.19347970932722 12.213958002626896
      vertex 28 -14.346470214426517 22.839142091572285
      vertex 28 -20.284442350268364 13.042178951203823
    endloop
  endfacet
  facet normal 9.435568192747005e-16 0.965925826315528 -0.2588190450037716
    outer loop
      vertex 26.6 -17.193479708032488 12.213958007458901
      vertex 26.6 -14.346470214426517 22.839142091572285
      vertex 28 -17.19347970932722 12.213958002626896
    endloop
  endfacet
  facet normal 0 0.9659258263155281 -0.2588190450037717
    outer loop
      vertex -23.6 -14.346470214426517 22.839142091572285
      vertex 23.6 -14.346470214426517 22.839142091572285
      vertex 23.6 -17.193479708032488 12.213958007458901
    endloop
  endfacet
  facet normal 0 0.25881787234999826 0.9659261405263967
    outer loop
      vertex -28 -17.43743285536766 23.667363040149212
      vertex 28 -17.43743285536766 23.667363040149212
      vertex 23.6 -17.437432854816777 23.667363040001604
    endloop
  endfacet
  facet normal 0 0.2588190465900866 0.9659258258904764
    outer loop
      vertex -23.6 -17.437432854816777 23.667363040001604
      vertex 23.6 -17.437432854816777 23.667363040001604
      vertex 23.6 -14.346470214426517 22.839142091572285
    endloop
  endfacet
  facet normal 1 0 0
    outer loop
      vertex 28 -20.284442350268364 13.042178951203823
      vertex 28 -14.346470214426517 22.839142091572285
      vertex 28 -17.43743285536766 23.667363040149212
    endloop
  endfacet
  facet normal 0 0.965925826315528 -0.25881904500377173
    outer loop
      vertex 28 -17.19347970932722 12.213958002626896
      vertex 26.6 -14.346470214426517 22.839142091572285
      vertex 28 -14.346470214426517 22.839142091572285
    endloop
  endfacet
  facet normal 0 0.25881904659008653 0.9659258258904762
    outer loop
      vertex 26.6 -17.437432854816777 23.667363040001604
      vertex 28 -14.346470214426517 22.839142091572285
      vertex 26.6 -14.346470214426517 22.839142091572285
    endloop
  endfacet
  facet normal 0 0.25881787234999826 0.9659261405263966
    outer loop
      vertex 23.6 -17.437432854816777 23.667363040001604
      vertex 28 -17.43743285536766 23.667363040149212
      vertex 26.6 -17.437432854816777 23.667363040001604
    endloop
  endfacet
  facet normal 4.952233195774878e-16 0.25881904659008637 0.9659258258904763
    outer loop
      vertex 26.6 -17.437432854816777 23.667363040001604
      vertex 28 -17.43743285536766 23.667363040149212
      vertex 28 -14.346470214426517 22.839142091572285
    endloop
  endfacet
  facet normal 1 0 0
    outer loop
      vertex -7 8 3
      vertex -7 17.19347970932722 3
      vertex -7 8 5.463385462739996
    endloop
  endfacet
  facet normal 0 1 0
    outer loop
      vertex -7 8 3
      vertex -7 8 5.463385462739996
      vertex 7 8 3
    endloop
  endfacet
  facet normal 0 0 1
    outer loop
      vertex -7 8 3
      vertex 7 30 3
      vertex -7 17.19347970932722 3
    endloop
  endfacet
  facet normal 1 0 0
    outer loop
      vertex -7 17.19347970932722 3
      vertex -7 20.506363482752626 3
      vertex -7 20.944768402606897 17
    endloop
  endfacet
  facet normal 0 0 1
    outer loop
      vertex -7 17.19347970932722 3
      vertex 7 30 3
      vertex -7 20.506363482752626 3
    endloop
  endfacet
  facet normal 0 0 1
    outer loop
      vertex -7 30 3
      vertex -7 20.506363482752626 3
      vertex 7 30 3
    endloop
  endfacet
  facet normal 1 0 0
    outer loop
      vertex -7 20.506363482752626 3
      vertex -7 24.257652179406914 17
      vertex -7 20.944768402606897 17
    endloop
  endfacet
  facet normal 0 0 -1
    outer loop
      vertex -7 20.944768402606897 17
      vertex -7 24.257652179406914 17
      vertex 7 20.944768402606897 17
    endloop
  endfacet
  facet normal 0 0 1
    outer loop
      vertex -7 8 3
      vertex 7 8 3
      vertex 7 17.19347970932722 3
    endloop
  endfacet
  facet normal 0 1 0
    outer loop
      vertex 7 8 3
      vertex -7 8 5.463385462739996
      vertex 7 8 5.463385462739996
    endloop
  endfacet
  facet normal -1 0 0
    outer loop
      vertex 7 8 3
      vertex 7 8 5.463385462739996
      vertex 7 17.19347970932722 3
    endloop
  endfacet
  facet normal 0 0 1
    outer loop
      vertex -7 8 3
      vertex 7 17.19347970932722 3
      vertex 7 20.506363482752626 3
    endloop
  endfacet
  facet normal 0 0 1
    outer loop
      vertex -7 8 3
      vertex 7 20.506363482752626 3
      vertex 7 30 3
    endloop
  endfacet
  facet normal -1 0 0
    outer loop
      vertex 7 17.19347970932722 3
      vertex 7 24.257652179406918 17
      vertex 7 20.506363482752626 3
    endloop
  endfacet
  facet normal -1 0 0
    outer loop
      vertex 7 17.19347970932722 3
      vertex 7 20.944768402606897 17
      vertex 7 24.257652179406918 17
    endloop
  endfacet
  facet normal 0 0 -1
    outer loop
      vertex 7 20.944768402606897 17
      vertex -7 24.257652179406914 17
      vertex 7 24.257652179406918 17
    endloop
  endfacet
endsolid OpenSCAD_Model
