solid OpenSCAD_Model
  facet normal 0 -0.2588190451298261 -0.9659258262817518
    outer loop
      vertex -28.6 -17.38666487359962 12.31748562773449
      vertex -28.6 17.386664875462266 3.0000000022786537
      vertex -25.6 -17.38666487359962 12.31748562773449
    endloop
  endfacet
  facet normal 1 0 0
    outer loop
      vertex -25.6 -17.38666487359962 12.31748562773449
      vertex -25.6 17.386664875462266 3.0000000022786537
      vertex -25.6 -14.539655379951 22.942669712007046
    endloop
  endfacet
  facet normal -1 0 0
    outer loop
      vertex -28.6 -17.63061802034126 23.770890660436365
      vertex -28.6 -16.336522795259953 28.60051979124546
      vertex -28.6 -14.539655379951 22.942669712007046
    endloop
  endfacet
  facet normal 0 -0.9659258263021091 0.25881904505385195
    outer loop
      vertex -28.6 -17.63061802034126 23.770890660436365
      vertex -25.6 -17.63061802034126 23.770890660436365
      vertex -25.6 -16.336522795259953 28.60051979124546
    endloop
  endfacet
  facet normal 1 0 0
    outer loop
      vertex -25.6 -17.63061802034126 23.770890660436365
      vertex -25.6 -14.539655379951 22.942669712007046
      vertex -25.6 -16.336522795259953 28.60051979124546
    endloop
  endfacet
  facet normal 0 -0.9659258263021091 0.25881904505385195
    outer loop
      vertex -28.6 -17.63061802034126 23.770890660436365
      vertex -25.6 -16.336522795259953 28.60051979124546
      vertex -28.6 -16.336522795259953 28.60051979124546
    endloop
  endfacet
  facet normal -1 0 0
    outer loop
      vertex -28.6 -17.38666487359962 12.31748562773449
      vertex -28.6 -14.539655379951 22.942669712007046
      vertex -28.6 21.52776959599516 18.45481322188553
    endloop
  endfacet
  facet normal -1 0 0
    outer loop
      vertex -28.6 -16.336522795259953 28.60051979124546
      vertex -28.6 21.52776959599516 18.45481322188553
      vertex -28.6 -14.539655379951 22.942669712007046
    endloop
  endfacet
  facet normal 0 0.2588190451298261 0.9659258262817518
    outer loop
      vertex -28.6 -16.336522795259953 28.60051979124546
      vertex -25.6 -16.336522795259953 28.60051979124546
      vertex -25.6 21.52776959599516 18.45481322188553
    endloop
  endfacet
  facet normal 1 0 0
    outer loop
      vertex -25.6 -16.336522795259953 28.60051979124546
      vertex -25.6 -14.539655379951 22.942669712007046
      vertex -25.6 21.52776959599516 18.45481322188553
    endloop
  endfacet
  facet normal 0 -0.2588190451298261 -0.9659258262817518
    outer loop
      vertex -25.6 -17.38666487359962 12.31748562773449
      vertex -28.6 17.386664875462266 3.0000000022786537
      vertex -25.6 17.386664875462266 3.0000000022786537
    endloop
  endfacet
  facet normal -1 0 0
    outer loop
      vertex -28.6 -17.38666487359962 12.31748562773449
      vertex -28.6 21.52776959599516 18.45481322188553
      vertex -28.6 17.386664875462266 3.0000000022786537
    endloop
  endfacet
  facet normal 1 0 0
    outer loop
      vertex -25.6 -14.539655379951 22.942669712007046
      vertex -25.6 17.386664875462266 3.0000000022786537
      vertex -25.6 21.52776959599516 18.45481322188553
    endloop
  endfacet
  facet normal 0 0.2588190451298261 0.9659258262817518
    outer loop
      vertex -28.6 -16.336522795259953 28.60051979124546
      vertex -25.6 21.52776959599516 18.45481322188553
      vertex -28.6 21.52776959599516 18.45481322188553
    endloop
  endfacet
  facet normal 0 -0.2588190451298261 -0.9659258262817518
    outer loop
      vertex 25.6 -17.38666487359962 12.31748562773449
      vertex 25.6 17.386664875462266 3.0000000022786537
      vertex 28.6 -17.38666487359962 12.31748562773449
    endloop
  endfacet
  facet normal 1 0 0
    outer loop
      vertex 28.6 -17.38666487359962 12.31748562773449
      vertex 28.6 17.386664875462266 3.0000000022786537
      vertex 28.6 -14.539655379951 22.942669712007046
    endloop
  endfacet
  facet normal -1 0 0
    outer loop
      vertex 25.6 -17.63061802034126 23.770890660436365
      vertex 25.6 -16.336522795259953 28.60051979124546
      vertex 25.6 -14.539655379951 22.942669712007046
    endloop
  endfacet
  facet normal 0 -0.9659258263021091 0.25881904505385195
    outer loop
      vertex 25.6 -17.63061802034126 23.770890660436365
      vertex 28.6 -17.63061802034126 23.770890660436365
      vertex 28.6 -16.336522795259953 28.60051979124546
    endloop
  endfacet
  facet normal 0 -0.9659258263021091 0.25881904505385195
    outer loop
      vertex 25.6 -17.63061802034126 23.770890660436365
      vertex 28.6 -16.336522795259953 28.60051979124546
      vertex 25.6 -16.336522795259953 28.60051979124546
    endloop
  endfacet
  facet normal -1 0 0
    outer loop
      vertex 25.6 -17.38666487359962 12.31748562773449
      vertex 25.6 -14.539655379951 22.942669712007046
      vertex 25.6 21.52776959599516 18.45481322188553
    endloop
  endfacet
  facet normal -1 0 0
    outer loop
      vertex 25.6 -16.336522795259953 28.60051979124546
      vertex 25.6 21.52776959599516 18.45481322188553
      vertex 25.6 -14.539655379951 22.942669712007046
    endloop
  endfacet
  facet normal 1 0 0
    outer loop
      vertex 28.6 -17.63061802034126 23.770890660436365
      vertex 28.6 21.52776959599516 18.45481322188553
      vertex 28.6 -16.336522795259953 28.60051979124546
    endloop
  endfacet
  facet normal 1 0 0
    outer loop
      vertex 28.6 -17.63061802034126 23.770890660436365
      vertex 28.6 -14.539655379951 22.942669712007046
      vertex 28.6 21.52776959599516 18.45481322188553
    endloop
  endfacet
  facet normal 0 0.2588190451298261 0.9659258262817518
    outer loop
      vertex 25.6 -16.336522795259953 28.60051979124546
      vertex 28.6 -16.336522795259953 28.60051979124546
      vertex 28.6 21.52776959599516 18.45481322188553
    endloop
  endfacet
  facet normal 0 -0.2588190451298261 -0.9659258262817518
    outer loop
      vertex 28.6 -17.38666487359962 12.31748562773449
      vertex 25.6 17.386664875462266 3.0000000022786537
      vertex 28.6 17.386664875462266 3.0000000022786537
    endloop
  endfacet
  facet normal -1 0 0
    outer loop
      vertex 25.6 -17.38666487359962 12.31748562773449
      vertex 25.6 21.52776959599516 18.45481322188553
      vertex 25.6 17.386664875462266 3.0000000022786537
    endloop
  endfacet
  facet normal 1 0 0
    outer loop
      vertex 28.6 -14.539655379951 22.942669712007046
      vertex 28.6 17.386664875462266 3.0000000022786537
      vertex 28.6 21.52776959599516 18.45481322188553
    endloop
  endfacet
  facet normal 0 0.2588190451298261 0.9659258262817518
    outer loop
      vertex 25.6 -16.336522795259953 28.60051979124546
      vertex 28.6 21.52776959599516 18.45481322188553
      vertex 25.6 21.52776959599516 18.45481322188553
    endloop
  endfacet
  facet normal -1 0 0
    outer loop
      vertex -30 -30 0
      vertex -30 -30 3
      vertex -30 5.022814306584218 3
    endloop
  endfacet
  facet normal -1 0 0
    outer loop
      vertex -30 -30 0
      vertex -30 5.022814306584218 3
      vertex -30 16.218966728709415 0
    endloop
  endfacet
  facet normal 0 -1 0
    outer loop
      vertex -30 -30 0
      vertex 30 -30 3
      vertex -30 -30 3
    endloop
  endfacet
  facet normal 0 0 -1
    outer loop
      vertex -30 -30 0
      vertex -30 16.218966728709415 0
      vertex 30 -30 0
    endloop
  endfacet
  facet normal 0 0 1
    outer loop
      vertex -30 -30 3
      vertex 30 5.022814306584218 3
      vertex -30 5.022814306584218 3
    endloop
  endfacet
  facet normal -1 0 0
    outer loop
      vertex -30 5.022814306584218 3
      vertex -30 17.386664874851704 3
      vertex -30 16.218966728709415 0
    endloop
  endfacet
  facet normal -1 0 0
    outer loop
      vertex -30 16.218966728709415 0
      vertex -30 17.386664874851704 3
      vertex -30 20.69954864827711 3
    endloop
  endfacet
  facet normal -1 0 0
    outer loop
      vertex -30 16.218966728709415 0
      vertex -30 30 3
      vertex -30 16.582817292606503 0
    endloop
  endfacet
  facet normal -1 0 0
    outer loop
      vertex -30 16.218966728709415 0
      vertex -30 20.69954864827711 3
      vertex -30 30 3
    endloop
  endfacet
  facet normal -1 0 0
    outer loop
      vertex -30 16.582817292606503 0
      vertex -30 30 3
      vertex -30 30 0
    endloop
  endfacet
  facet normal 0 0 1
    outer loop
      vertex -30 20.69954864827711 3
      vertex -7 30 3
      vertex -30 30 3
    endloop
  endfacet
  facet normal 0 0 -1
    outer loop
      vertex -30 16.582817292606503 0
      vertex -30 30 0
      vertex 30 16.582817292606503 0
    endloop
  endfacet
  facet normal 0 0 1
    outer loop
      vertex -30 20.69954864827711 3
      vertex -7 20.69954864827711 3
      vertex -7 30 3
    endloop
  endfacet
  facet normal 0 1 0
    outer loop
      vertex -30 30 0
      vertex -30 30 3
      vertex 30 30 0
    endloop
  endfacet
  facet normal 0 1 0
    outer loop
      vertex -30 30 3
      vertex -7 30 3
      vertex 30 30 0
    endloop
  endfacet
  facet normal 0 -1 0
    outer loop
      vertex -30 -30 0
      vertex 30 -30 0
      vertex 30 -30 3
    endloop
  endfacet
  facet normal 0 0 1
    outer loop
      vertex -30 -30 3
      vertex 30 -30 3
      vertex 30 5.022814306584218 3
    endloop
  endfacet
  facet normal 1 0 0
    outer loop
      vertex 30 -30 0
      vertex 30 16.218966728709415 0
      vertex 30 -30 3
    endloop
  endfacet
  facet normal 1 0 0
    outer loop
      vertex 30 -30 3
      vertex 30 16.218966728709415 0
      vertex 30 5.022814306584218 3
    endloop
  endfacet
  facet normal 0 0 -1
    outer loop
      vertex -30 16.218966728709415 0
      vertex 30 16.218966728709415 0
      vertex 30 -30 0
    endloop
  endfacet
  facet normal 0 0 -1
    outer loop
      vertex -30 30 0
      vertex 30 30 0
      vertex 30 16.582817292606503 0
    endloop
  endfacet
  facet normal 0 1 0
    outer loop
      vertex 30 30 0
      vertex -7 30 3
      vertex 7 30 3
    endloop
  endfacet
  facet normal 0 0 1
    outer loop
      vertex 30 30 3
      vertex 7 30 3
      vertex 7 20.69954864827711 3
    endloop
  endfacet
  facet normal 1 0 0
    outer loop
      vertex 30 5.022814306584218 3
      vertex 30 16.218966728709415 0
      vertex 30 16.582817292606503 0
    endloop
  endfacet
  facet normal 0 0 1
    outer loop
      vertex 30 20.69954864827711 3
      vertex 30 30 3
      vertex 7 20.69954864827711 3
    endloop
  endfacet
  facet normal 0 1 0
    outer loop
      vertex 30 30 0
      vertex 7 30 3
      vertex 30 30 3
    endloop
  endfacet
  facet normal 1 0 0
    outer loop
      vertex 30 5.022814306584218 3
      vertex 30 16.582817292606503 0
      vertex 30 30 0
    endloop
  endfacet
  facet normal 1 0 0
    outer loop
      vertex 30 5.022814306584218 3
      vertex 30 30 0
      vertex 30 17.386664874851704 3
    endloop
  endfacet
  facet normal 1 0 0
    outer loop
      vertex 30 17.386664874851704 3
      vertex 30 30 0
      vertex 30 20.69954864827711 3
    endloop
  endfacet
  facet normal 1 0 0
    outer loop
      vertex 30 20.69954864827711 3
      vertex 30 30 0
      vertex 30 30 3
    endloop
  endfacet
  facet normal -1 0 0
    outer loop
      vertex -30 -18.21488581597805 9.226522982120514
      vertex -30 -17.386664874851704 12.317485623061657
      vertex -30 17.386664874851704 3
    endloop
  endfacet
  facet normal 0 -0.9659258264725529 0.25881904441774684
    outer loop
      vertex -30 -18.21488581597805 9.226522982120514
      vertex 30 -17.386664874851704 12.317485623061657
      vertex -30 -17.386664874851704 12.317485623061657
    endloop
  endfacet
  facet normal 0 -0.2588190451150613 -0.9659258262857081
    outer loop
      vertex -30 -18.21488581597805 9.226522982120514
      vertex -30 5.022814306584218 3
      vertex 30 5.022814306584218 3
    endloop
  endfacet
  facet normal -7.724320538739897e-17 0.2588190450633213 0.9659258262995718
    outer loop
      vertex -30 -17.386664874851704 12.317485623061657
      vertex 7 8 5.515149272429817
      vertex -7 8 5.515149272429815
    endloop
  endfacet
  facet normal -1 0 0
    outer loop
      vertex -30 -18.21488581597805 9.226522982120514
      vertex -30 17.386664874851704 3
      vertex -30 5.022814306584218 3
    endloop
  endfacet
  facet normal 0 0.25881904506332115 0.9659258262995718
    outer loop
      vertex -30 -17.386664874851704 12.317485623061657
      vertex -7 17.386664874851704 3
      vertex -30 17.386664874851704 3
    endloop
  endfacet
  facet normal -1 0 0
    outer loop
      vertex -30 16.218966728709415 0
      vertex -30 16.582817292606503 0
      vertex -30 16.558443926274776 -0.09096264094114304
    endloop
  endfacet
  facet normal 1.271612605311882e-16 0.25881904506332104 0.9659258262995718
    outer loop
      vertex -30 -17.386664874851704 12.317485623061657
      vertex -7 8 5.515149272429815
      vertex -7 17.386664874851704 3
    endloop
  endfacet
  facet normal 0 -0.2588190451150607 -0.9659258262857082
    outer loop
      vertex -30 16.218966728709415 0
      vertex -30 16.558443926274776 -0.09096264094114304
      vertex 30 16.558443926274776 -0.09096264094114304
    endloop
  endfacet
  facet normal 0 0.9659258258904735 -0.258819046590097
    outer loop
      vertex -30 16.558443926274776 -0.09096264094114304
      vertex -30 16.582817292606503 0
      vertex 30 16.582817292606503 0
    endloop
  endfacet
  facet normal 0 -0.9659258264725529 0.25881904441774684
    outer loop
      vertex -30 -18.21488581597805 9.226522982120514
      vertex 30 -18.21488581597805 9.226522982120514
      vertex 30 -17.386664874851704 12.317485623061657
    endloop
  endfacet
  facet normal 0 -0.2588190451150613 -0.9659258262857081
    outer loop
      vertex -30 -18.21488581597805 9.226522982120514
      vertex 30 5.022814306584218 3
      vertex 30 -18.21488581597805 9.226522982120514
    endloop
  endfacet
  facet normal 0 0.25881904506332115 0.9659258262995718
    outer loop
      vertex -30 -17.386664874851704 12.317485623061657
      vertex 30 -17.386664874851704 12.317485623061657
      vertex 30 17.386664874851704 3
    endloop
  endfacet
  facet normal 1 0 0
    outer loop
      vertex 30 -18.21488581597805 9.226522982120514
      vertex 30 17.386664874851704 3
      vertex 30 -17.386664874851704 12.317485623061657
    endloop
  endfacet
  facet normal 1.1603891564271982e-16 0.2588190450633211 0.9659258262995718
    outer loop
      vertex -30 -17.386664874851704 12.317485623061657
      vertex 30 17.386664874851704 3
      vertex 7 8 5.515149272429817
    endloop
  endfacet
  facet normal 0 0.2588190450633212 0.9659258262995718
    outer loop
      vertex 30 17.386664874851704 3
      vertex 7 17.386664874851704 3
      vertex 7 8 5.515149272429817
    endloop
  endfacet
  facet normal 0 -0.2588190451150607 -0.9659258262857082
    outer loop
      vertex -30 16.218966728709415 0
      vertex 30 16.558443926274776 -0.09096264094114304
      vertex 30 16.218966728709415 0
    endloop
  endfacet
  facet normal 0 0.9659258258904735 -0.258819046590097
    outer loop
      vertex -30 16.558443926274776 -0.09096264094114304
      vertex 30 16.582817292606503 0
      vertex 30 16.558443926274776 -0.09096264094114304
    endloop
  endfacet
  facet normal 1 0 0
    outer loop
      vertex 30 -18.21488581597805 9.226522982120514
      vertex 30 5.022814306584218 3
      vertex 30 17.386664874851704 3
    endloop
  endfacet
  facet normal 0 0 0
    outer loop
      vertex 30 5.022814306584218 3
      vertex 30 16.218966728709415 0
      vertex 30 16.558443926274776 -0.09096264094114304
    endloop
  endfacet
  facet normal 0 0 0
    outer loop
      vertex 30 5.022814306584218 3
      vertex 30 16.558443926274776 -0.09096264094114304
      vertex 30 16.218966728709415 0
    endloop
  endfacet
  facet normal 1 0 0
    outer loop
      vertex 30 16.218966728709415 0
      vertex 30 16.558443926274776 -0.09096264094114304
      vertex 30 16.582817292606503 0
    endloop
  endfacet
  facet normal 0 -0.9659259485907673 0.25881858866593505
    outer loop
      vertex -30 17.386664874851704 3
      vertex -25.6 17.386664875462266 3.0000000022786537
      vertex -28.6 17.386664875462266 3.0000000022786537
    endloop
  endfacet
  facet normal -7.961534719761801e-16 -0.965925826302109 0.25881904505385206
    outer loop
      vertex -30 17.386664874851704 3
      vertex -28.6 17.386664875462266 3.0000000022786537
      vertex -28.6 21.52776959599516 18.45481322188553
    endloop
  endfacet
  facet normal 0 -0.9659259485907672 0.25881858866593505
    outer loop
      vertex -30 17.386664874851704 3
      vertex -7 17.386664874851704 3
      vertex -25.6 17.386664875462266 3.0000000022786537
    endloop
  endfacet
  facet normal -1 0 0
    outer loop
      vertex -30 17.386664874851704 3
      vertex -30 28.759836964309216 33.081405498087406
      vertex -30 20.69954864827711 3
    endloop
  endfacet
  facet normal -4.7751527944657653e-17 -0.9659258263021089 0.258819045053852
    outer loop
      vertex -25.6 17.386664875462266 3.0000000022786537
      vertex -7 21.137953568131376 17
      vertex -25.6 21.52776959599516 18.45481322188553
    endloop
  endfacet
  facet normal 0 0.9659258262439013 -0.2588190452710859
    outer loop
      vertex -30 20.69954864827711 3
      vertex -30 28.759836964309216 33.081405498087406
      vertex -7 20.69954864827711 3
    endloop
  endfacet
  facet normal 5.99255301291187e-17 -0.965925826302109 0.2588190450538519
    outer loop
      vertex -25.6 17.386664875462266 3.0000000022786537
      vertex -7 17.386664874851704 3
      vertex -7 21.137953568131376 17
    endloop
  endfacet
  facet normal -9.51619735468536e-16 -0.965925826302109 0.25881904505385206
    outer loop
      vertex -30 17.386664874851704 3
      vertex -28.6 21.52776959599516 18.45481322188553
      vertex -30 25.668874315917492 33.90962643921375
    endloop
  endfacet
  facet normal -1 0 0
    outer loop
      vertex -30 17.386664874851704 3
      vertex -30 25.668874315917492 33.90962643921375
      vertex -30 28.759836964309216 33.081405498087406
    endloop
  endfacet
  facet normal 0 -0.9659258263021091 0.2588190450538521
    outer loop
      vertex -28.6 21.52776959599516 18.45481322188553
      vertex -25.6 21.52776959599516 18.45481322188553
      vertex -30 25.668874315917492 33.90962643921375
    endloop
  endfacet
  facet normal -1.7051716251445386e-16 0.9659258262439013 -0.258819045271086
    outer loop
      vertex -30 28.759836964309216 33.081405498087406
      vertex -7 24.4508373449314 17
      vertex -7 20.69954864827711 3
    endloop
  endfacet
  facet normal -2.794910708432387e-17 -0.965925826302109 0.2588190450538521
    outer loop
      vertex -25.6 21.52776959599516 18.45481322188553
      vertex -7 21.137953568131376 17
      vertex 30 25.668874315917492 33.90962643921375
    endloop
  endfacet
  facet normal 0 -0.965925826302109 0.2588190450538521
    outer loop
      vertex -25.6 21.52776959599516 18.45481322188553
      vertex 30 25.668874315917492 33.90962643921375
      vertex -30 25.668874315917492 33.90962643921375
    endloop
  endfacet
  facet normal 0 0.2588190438356703 0.9659258266285199
    outer loop
      vertex -30 25.668874315917492 33.90962643921375
      vertex 30 28.759836964309216 33.081405498087406
      vertex -30 28.759836964309216 33.081405498087406
    endloop
  endfacet
  facet normal 0 0.9659258262439014 -0.2588190452710858
    outer loop
      vertex -30 28.759836964309216 33.081405498087406
      vertex 30 28.759836964309216 33.081405498087406
      vertex -7 24.4508373449314 17
    endloop
  endfacet
  facet normal 0 0.9659258262439014 -0.25881904527108585
    outer loop
      vertex 30 20.69954864827711 3
      vertex 7 20.69954864827711 3
      vertex 7 24.450837344931397 17
    endloop
  endfacet
  facet normal 5.2713638952537315e-17 -0.965925826302109 0.2588190450538519
    outer loop
      vertex 25.6 21.52776959599516 18.45481322188553
      vertex 7 21.137953568131376 17
      vertex 7 17.386664874851704 3
    endloop
  endfacet
  facet normal 0 -0.9659259485907672 0.25881858866593505
    outer loop
      vertex 25.6 17.386664875462266 3.0000000022786537
      vertex 7 17.386664874851704 3
      vertex 30 17.386664874851704 3
    endloop
  endfacet
  facet normal -5.992553014874465e-17 -0.9659258263021089 0.258819045053852
    outer loop
      vertex 25.6 17.386664875462266 3.0000000022786537
      vertex 25.6 21.52776959599516 18.45481322188553
      vertex 7 17.386664874851704 3
    endloop
  endfacet
  facet normal 0 -0.9659259485907673 0.25881858866593505
    outer loop
      vertex 25.6 17.386664875462266 3.0000000022786537
      vertex 30 17.386664874851704 3
      vertex 28.6 17.386664875462266 3.0000000022786537
    endloop
  endfacet
  facet normal 7.961534719761801e-16 -0.965925826302109 0.25881904505385206
    outer loop
      vertex 28.6 17.386664875462266 3.0000000022786537
      vertex 30 17.386664874851704 3
      vertex 28.6 21.52776959599516 18.45481322188553
    endloop
  endfacet
  facet normal 1 0 0
    outer loop
      vertex 30 17.386664874851704 3
      vertex 30 20.69954864827711 3
      vertex 30 28.759836964309216 33.081405498087406
    endloop
  endfacet
  facet normal 0 -0.965925826302109 0.2588190450538521
    outer loop
      vertex 30 25.668874315917492 33.90962643921375
      vertex -7 21.137953568131376 17
      vertex 7 21.137953568131376 17
    endloop
  endfacet
  facet normal 2.438776099700289e-16 0.9659258262439013 -0.25881904527108635
    outer loop
      vertex 30 28.759836964309216 33.081405498087406
      vertex 7 24.450837344931397 17
      vertex -7 24.4508373449314 17
    endloop
  endfacet
  facet normal 0 0.2588190438356703 0.9659258266285199
    outer loop
      vertex -30 25.668874315917492 33.90962643921375
      vertex 30 25.668874315917492 33.90962643921375
      vertex 30 28.759836964309216 33.081405498087406
    endloop
  endfacet
  facet normal -5.951949972934617e-17 0.9659258262439013 -0.2588190452710859
    outer loop
      vertex 30 20.69954864827711 3
      vertex 7 24.450837344931397 17
      vertex 30 28.759836964309216 33.081405498087406
    endloop
  endfacet
  facet normal 3.662931121926474e-17 -0.965925826302109 0.25881904505385206
    outer loop
      vertex 25.6 21.52776959599516 18.45481322188553
      vertex 30 25.668874315917492 33.90962643921375
      vertex 7 21.137953568131376 17
    endloop
  endfacet
  facet normal 9.51619735468536e-16 -0.965925826302109 0.25881904505385206
    outer loop
      vertex 30 17.386664874851704 3
      vertex 30 25.668874315917492 33.90962643921375
      vertex 28.6 21.52776959599516 18.45481322188553
    endloop
  endfacet
  facet normal 0 -0.9659258263021091 0.2588190450538521
    outer loop
      vertex 25.6 21.52776959599516 18.45481322188553
      vertex 28.6 21.52776959599516 18.45481322188553
      vertex 30 25.668874315917492 33.90962643921375
    endloop
  endfacet
  facet normal 1 0 0
    outer loop
      vertex 30 17.386664874851704 3
      vertex 30 28.759836964309216 33.081405498087406
      vertex 30 25.668874315917492 33.90962643921375
    endloop
  endfacet
  facet normal -1 0 0
    outer loop
      vertex -30 -17.386664874851704 12.317485623061657
      vertex -30 -20.477627515792847 13.145706571638584
      vertex -30 -14.539655379951 22.942669712007046
    endloop
  endfacet
  facet normal -7.662469341570029e-16 0.965925826315528 -0.25881904500377173
    outer loop
      vertex -30 -17.386664874851704 12.317485623061657
      vertex -30 -14.539655379951 22.942669712007046
      vertex -28.6 -17.38666487359962 12.31748562773449
    endloop
  endfacet
  facet normal 0 0.9659257689228213 -0.25881925919617443
    outer loop
      vertex -30 -17.386664874851704 12.317485623061657
      vertex -28.6 -17.38666487359962 12.31748562773449
      vertex 30 -17.386664874851704 12.317485623061657
    endloop
  endfacet
  facet normal 0 0.9659257689228212 -0.25881925919617443
    outer loop
      vertex -28.6 -17.38666487359962 12.31748562773449
      vertex -25.6 -17.38666487359962 12.31748562773449
      vertex 30 -17.386664874851704 12.317485623061657
    endloop
  endfacet
  facet normal 0 -0.25881904659008637 -0.9659258258904763
    outer loop
      vertex -30 -17.386664874851704 12.317485623061657
      vertex 30 -20.477627515792847 13.145706571638584
      vertex -30 -20.477627515792847 13.145706571638584
    endloop
  endfacet
  facet normal 0 0.9659258263155281 -0.2588190450037717
    outer loop
      vertex -25.6 -17.38666487359962 12.31748562773449
      vertex -25.6 -14.539655379951 22.942669712007046
      vertex 25.6 -17.38666487359962 12.31748562773449
    endloop
  endfacet
  facet normal -1 0 0
    outer loop
      vertex -30 -20.477627515792847 13.145706571638584
      vertex -30 -17.630618020892143 23.770890660583973
      vertex -30 -14.539655379951 22.942669712007046
    endloop
  endfacet
  facet normal 0 0.965925826315528 -0.2588190450037716
    outer loop
      vertex -28.6 -17.38666487359962 12.31748562773449
      vertex -30 -14.539655379951 22.942669712007046
      vertex -28.6 -14.539655379951 22.942669712007046
    endloop
  endfacet
  facet normal 0 0.25881904659008637 0.9659258258904763
    outer loop
      vertex -30 -17.630618020892143 23.770890660583973
      vertex -28.6 -14.539655379951 22.942669712007046
      vertex -30 -14.539655379951 22.942669712007046
    endloop
  endfacet
  facet normal -4.952233196657484e-16 0.25881904659008653 0.9659258258904762
    outer loop
      vertex -30 -17.630618020892143 23.770890660583973
      vertex -28.6 -17.63061802034126 23.770890660436365
      vertex -28.6 -14.539655379951 22.942669712007046
    endloop
  endfacet
  facet normal 0 0.25881787234999826 0.9659261405263966
    outer loop
      vertex -30 -17.630618020892143 23.770890660583973
      vertex -25.6 -17.63061802034126 23.770890660436365
      vertex -28.6 -17.63061802034126 23.770890660436365
    endloop
  endfacet
  facet normal 0 -0.9659258263155279 0.25881904500377173
    outer loop
      vertex -30 -20.477627515792847 13.145706571638584
      vertex 30 -17.630618020892143 23.770890660583973
      vertex -30 -17.630618020892143 23.770890660583973
    endloop
  endfacet
  facet normal 0 0.25881904659008653 0.9659258258904763
    outer loop
      vertex -25.6 -17.63061802034126 23.770890660436365
      vertex 25.6 -14.539655379951 22.942669712007046
      vertex -25.6 -14.539655379951 22.942669712007046
    endloop
  endfacet
  facet normal 0 0.2588178723499983 0.9659261405263966
    outer loop
      vertex -30 -17.630618020892143 23.770890660583973
      vertex 25.6 -17.63061802034126 23.770890660436365
      vertex -25.6 -17.63061802034126 23.770890660436365
    endloop
  endfacet
  facet normal 0 -0.25881904659008637 -0.9659258258904763
    outer loop
      vertex -30 -17.386664874851704 12.317485623061657
      vertex 30 -17.386664874851704 12.317485623061657
      vertex 30 -20.477627515792847 13.145706571638584
    endloop
  endfacet
  facet normal 0 0.9659257689228212 -0.2588192591961744
    outer loop
      vertex -25.6 -17.38666487359962 12.31748562773449
      vertex 25.6 -17.38666487359962 12.31748562773449
      vertex 30 -17.386664874851704 12.317485623061657
    endloop
  endfacet
  facet normal 0 -0.9659258263155279 0.25881904500377173
    outer loop
      vertex -30 -20.477627515792847 13.145706571638584
      vertex 30 -20.477627515792847 13.145706571638584
      vertex 30 -17.630618020892143 23.770890660583973
    endloop
  endfacet
  facet normal 0 0.9659257689228212 -0.25881925919617443
    outer loop
      vertex 25.6 -17.38666487359962 12.31748562773449
      vertex 28.6 -17.38666487359962 12.31748562773449
      vertex 30 -17.386664874851704 12.317485623061657
    endloop
  endfacet
  facet normal 1 0 0
    outer loop
      vertex 30 -17.386664874851704 12.317485623061657
      vertex 30 -14.539655379951 22.942669712007046
      vertex 30 -20.477627515792847 13.145706571638584
    endloop
  endfacet
  facet normal 7.6624693449398935e-16 0.965925826315528 -0.2588190450037716
    outer loop
      vertex 28.6 -17.38666487359962 12.31748562773449
      vertex 28.6 -14.539655379951 22.942669712007046
      vertex 30 -17.386664874851704 12.317485623061657
    endloop
  endfacet
  facet normal 0 0.9659258263155281 -0.2588190450037717
    outer loop
      vertex -25.6 -14.539655379951 22.942669712007046
      vertex 25.6 -14.539655379951 22.942669712007046
      vertex 25.6 -17.38666487359962 12.31748562773449
    endloop
  endfacet
  facet normal 0 0.2588178723499982 0.9659261405263966
    outer loop
      vertex -30 -17.630618020892143 23.770890660583973
      vertex 30 -17.630618020892143 23.770890660583973
      vertex 25.6 -17.63061802034126 23.770890660436365
    endloop
  endfacet
  facet normal 0 0.25881904659008653 0.9659258258904763
    outer loop
      vertex -25.6 -17.63061802034126 23.770890660436365
      vertex 25.6 -17.63061802034126 23.770890660436365
      vertex 25.6 -14.539655379951 22.942669712007046
    endloop
  endfacet
  facet normal 1 0 0
    outer loop
      vertex 30 -20.477627515792847 13.145706571638584
      vertex 30 -14.539655379951 22.942669712007046
      vertex 30 -17.630618020892143 23.770890660583973
    endloop
  endfacet
  facet normal 0 0.965925826315528 -0.25881904500377173
    outer loop
      vertex 30 -17.386664874851704 12.317485623061657
      vertex 28.6 -14.539655379951 22.942669712007046
      vertex 30 -14.539655379951 22.942669712007046
    endloop
  endfacet
  facet normal 0 0.25881904659008653 0.9659258258904762
    outer loop
      vertex 28.6 -17.63061802034126 23.770890660436365
      vertex 30 -14.539655379951 22.942669712007046
      vertex 28.6 -14.539655379951 22.942669712007046
    endloop
  endfacet
  facet normal 0 0.25881787234999826 0.9659261405263966
    outer loop
      vertex 25.6 -17.63061802034126 23.770890660436365
      vertex 30 -17.630618020892143 23.770890660583973
      vertex 28.6 -17.63061802034126 23.770890660436365
    endloop
  endfacet
  facet normal 4.952233195774878e-16 0.25881904659008637 0.9659258258904763
    outer loop
      vertex 28.6 -17.63061802034126 23.770890660436365
      vertex 30 -17.630618020892143 23.770890660583973
      vertex 30 -14.539655379951 22.942669712007046
    endloop
  endfacet
  facet normal 1 0 0
    outer loop
      vertex -7 8 3
      vertex -7 17.386664874851704 3
      vertex -7 8 5.515149272429815
    endloop
  endfacet
  facet normal 0 1 0
    outer loop
      vertex -7 8 3
      vertex -7 8 5.515149272429815
      vertex 7 8 3
    endloop
  endfacet
  facet normal 0 0 1
    outer loop
      vertex -7 8 3
      vertex 7 30 3
      vertex -7 17.386664874851704 3
    endloop
  endfacet
  facet normal 1 0 0
    outer loop
      vertex -7 17.386664874851704 3
      vertex -7 20.69954864827711 3
      vertex -7 21.137953568131376 17
    endloop
  endfacet
  facet normal 0 0 1
    outer loop
      vertex -7 17.386664874851704 3
      vertex 7 30 3
      vertex -7 20.69954864827711 3
    endloop
  endfacet
  facet normal 0 0 1
    outer loop
      vertex -7 30 3
      vertex -7 20.69954864827711 3
      vertex 7 30 3
    endloop
  endfacet
  facet normal 1 0 0
    outer loop
      vertex -7 20.69954864827711 3
      vertex -7 24.4508373449314 17
      vertex -7 21.137953568131376 17
    endloop
  endfacet
  facet normal 0 0 -1
    outer loop
      vertex -7 21.137953568131376 17
      vertex -7 24.4508373449314 17
      vertex 7 21.137953568131376 17
    endloop
  endfacet
  facet normal 0 0 1
    outer loop
      vertex -7 8 3
      vertex 7 8 3
      vertex 7 17.386664874851704 3
    endloop
  endfacet
  facet normal -1 0 0
    outer loop
      vertex 7 8 3
      vertex 7 8 5.515149272429817
      vertex 7 17.386664874851704 3
    endloop
  endfacet
  facet normal 0 1 0
    outer loop
      vertex 7 8 3
      vertex -7 8 5.515149272429815
      vertex 7 8 5.515149272429817
    endloop
  endfacet
  facet normal 0 0 1
    outer loop
      vertex -7 8 3
      vertex 7 17.386664874851704 3
      vertex 7 20.69954864827711 3
    endloop
  endfacet
  facet normal 0 0 1
    outer loop
      vertex -7 8 3
      vertex 7 20.69954864827711 3
      vertex 7 30 3
    endloop
  endfacet
  facet normal -1 0 0
    outer loop
      vertex 7 17.386664874851704 3
      vertex 7 24.450837344931397 17
      vertex 7 20.69954864827711 3
    endloop
  endfacet
  facet normal -1 0 0
    outer loop
      vertex 7 17.386664874851704 3
      vertex 7 21.137953568131376 17
      vertex 7 24.450837344931397 17
    endloop
  endfacet
  facet normal 0 0 -1
    outer loop
      vertex 7 21.137953568131376 17
      vertex -7 24.4508373449314 17
      vertex 7 24.450837344931397 17
    endloop
  endfacet
endsolid OpenSCAD_Model
